<svg xmlns="http://www.w3.org/2000/svg" viewBox="0 0 500 500"><g id="freepik--background-complete--inject-29"><path d="M341.06,254.49c.41,1.36,21.63-3.13,29.85-5.28s23.82,1.09,30.09,2.51,16.77-1.93,26.77-.53,23.71,5.36,23.71,5.36-14.14,19.44-24.5,26-47,20.31-57.19,22.3-47.47,8.45-63.2,5.75-54.13-7.66-59.72-5.77-8.31,1.27-8.21-.43,8.05-21.67,9-26.91,5.39-68.12,9.45-83.54,20.7-68.66,23.65-79.17,7.63-22.34,11.15-22.69,9.81,11.1,14.52,24.49,15.65,35.92,15.47,51.92-8.73,55-6.55,55.54,23.74-17.55,26.3-21.27S353,180.39,369.9,165s57.94-40.76,60.94-40.08S430,146.26,426.22,158s-33.45,53.67-40,61.71C376.28,231.8,338.94,247.42,341.06,254.49Z" style="fill:#ebebeb"></path><path d="M282.49,273.76c3.43-13.38,7-27.6,7.42-30,.78-4.69,4.25-42.87,4.68-63.69s-2.73-88-2.73-88c3.52-.35,9.81,11.1,14.52,24.48s15.65,35.92,15.46,51.93-8.72,55-6.54,55.54,23.73-17.55,26.3-21.27S353,180.39,369.9,165s57.94-40.76,60.93-40.08-.8,21.31-4.61,33.05-33.45,53.67-40,61.72c-9.9,12.08-47.24,27.7-45.11,34.77.4,1.36,21.62-3.13,29.84-5.28s23.82,1.09,30.09,2.51,16.77-1.94,26.77-.53,23.71,5.36,23.71,5.36h0c-.58.19-19.2,6.4-25.61,8.14s-71.4,7.72-82.3,7.83-56.51-2.18-56.51-2.18C286.2,271,284.61,272.21,282.49,273.76Z" style="fill:#dbdbdb"></path><g style="opacity:0.5"><path d="M291.86,92.07c1.95,30,3.93,61.38,3.63,91.4-.63,15.25-1.78,30.46-3.28,45.64-.68,5.69-1,11.45-2.21,17.07-2.26,9.26-4.87,18.43-7.51,27.58,1.71-7.42,3.52-14.83,5.17-22.26a75.53,75.53,0,0,0,2-11.16c1.65-18.94,3.15-38,3.79-56.93.5-29-1.26-62.27-1.63-91.34Z" style="fill:#c7c7c7"></path><path d="M430.84,125c-12.55,16.44-24.8,33.17-38.3,48.85-8.5,9-17.47,17.68-26.31,26.37l-23.68,23.09c-6.06,5.66-11.61,11.91-17.88,17.26-18.66,16-38.36,31.88-58.69,45.82-9.05,6.31-18.07,12.66-27.17,18.88l26.6-19.67c20-14.3,39.44-30.41,58-46.43C345.21,218,367,197,388.59,175.74a155.82,155.82,0,0,0,11-12.29c7.33-8.85,23.87-29.38,31.29-38.5Z" style="fill:#c7c7c7"></path><path d="M451.48,256.55c-9,3.14-17.9,6.7-27.15,9.06-11.12,1.87-22.34,3-33.55,4.12-15.53,1.52-31,3.06-46.65,3.67-12.14,0-24.24-.95-36.36-1.58-6.91-.48-13.82-.9-20.72-1.47l20.76.49c9.75.21,26.75.87,36.29.79,8.61-.36,17.22-1.2,25.83-1.93,18.07-1.56,36.19-3,54.19-5.26,9.24-2.12,18.24-5.29,27.36-7.89Z" style="fill:#c7c7c7"></path><path d="M274.2,163c1.89,8.37,4.11,20.22,6.49,28.32a48.55,48.55,0,0,0,2.9,6.58q4.67,9.87,8.8,20c-1.11-2.16-2.17-4.34-3.26-6.51-2.35-4.75-5.6-11.62-8-16.33-2.62-5.51-3.35-11.77-4.64-17.66-.88-4.78-1.68-9.57-2.31-14.38Z" style="fill:#c7c7c7"></path><path d="M384.45,160.68c-3.89,6.47-9.55,15.38-13,22-2.09,3.72-3.22,7.88-5.26,11.61a105.91,105.91,0,0,1-6.53,11c2-3.73,4-7.49,5.84-11.34s3-8,5.07-11.74a188,188,0,0,1,13.87-21.5Z" style="fill:#c7c7c7"></path><path d="M379.61,217.75a314,314,0,0,1-35.42,16.06c-3.33,1.29-7,1.21-10.46,2-2.32.38-4.63.83-7,1.24a116,116,0,0,1,13.84-3,48.81,48.81,0,0,0,6.57-2.28c10.71-4.42,21.74-9.45,32.43-14Z" style="fill:#c7c7c7"></path><path d="M393.73,253.9a207.66,207.66,0,0,0-22.05,10c-2.3,1.47-5.78,3.72-8.16,5.2-1.39.84-2.76,1.71-4.16,2.52,1.28-1,2.59-1.95,3.88-2.92,2.4-1.7,5.52-4,8-5.62a98.06,98.06,0,0,1,22.53-9.13Z" style="fill:#c7c7c7"></path><path d="M419.69,276.55a74.67,74.67,0,0,1-17.17-1.94,104.06,104.06,0,0,1-12.18-5.75c1.21.42,2.4.9,3.6,1.34L401,273c3.54,1.41,7.38,1.61,11.09,2.37,2.52.41,5,.87,7.56,1.15Z" style="fill:#c7c7c7"></path><path d="M352.12,297.2c-7.63-2.18-14.66-6.07-21.67-9.73a57.21,57.21,0,0,1-7.57-4.85c-1.52-1.4-4.61-5.05-6.06-6.58s-2.63-3-3.9-4.49c1.44,1.37,2.83,2.77,4.25,4.15l4.18,4.21a19,19,0,0,0,4.48,3.72c8.41,4.89,17.3,9.86,26.29,13.57Z" style="fill:#c7c7c7"></path><path d="M306.44,138.87a132.43,132.43,0,0,1-3.8,24.79,185.4,185.4,0,0,1-8.09,17.76c.65-1.74,1.36-3.46,2-5.19,1.05-2.56,3.14-7.72,4.18-10.3,2.06-5.14,2.6-10.72,3.78-16.11.65-3.64,1.46-7.27,1.9-10.95Z" style="fill:#c7c7c7"></path><path d="M308,210.56c-2.15,6-4.58,11.86-7.12,17.7-.7,1.54-2.24,5.05-3,6.51-2.1,3.44-5.1,6.2-7.93,9,2.27-2.92,5.38-6.17,7.14-9.39,3.53-7.94,7-16.07,10.91-23.82Z" style="fill:#c7c7c7"></path></g><path d="M162.15,220.93c-.89,1.25-21-10.71-28.68-15.77s-24.75-7.16-31.65-7.89-16.48-7.81-27.19-9.85-26.11-2.75-26.11-2.75,7.7,24.79,16,35.08,41,37.1,50.74,42.68,45.61,25.14,62.62,27.85,58,11,63.09,14.84,8.05,4.19,8.54,2.42-.7-25,.2-30.64,18.16-71.53,19.36-88.71,2.7-77.41,3.34-89.18-.05-25.5-3.52-27.08-13.89,7.94-23.36,20-28.49,31.29-33.86,47.72S201.5,199,199.1,198.72s-18.18-26.2-19.51-30.89-3.85-26.81-15.84-48.41-45.08-61.81-48.38-62.16-6.58,22.07-6.77,35.4,15.56,66.51,19.5,77C134,185.49,166.78,214.44,162.15,220.93Z" style="fill:#ebebeb"></path><path d="M215.36,261c1.14-14.88,2.41-30.67,2.84-33.26.83-5.06,10.54-45.31,17.35-66.76s33.37-89,33.37-89c-3.48-1.58-13.89,7.94-23.35,20s-28.5,31.3-33.87,47.73S201.5,199,199.09,198.72s-18.17-26.19-19.5-30.89-3.85-26.81-15.84-48.41-45.09-61.81-48.38-62.16-6.58,22.07-6.77,35.4,15.56,66.51,19.5,77c5.92,15.8,38.69,44.75,34.05,51.24-.89,1.25-21-10.71-28.68-15.77s-24.74-7.16-31.65-7.89-16.48-7.81-27.19-9.85-26.11-2.75-26.11-2.75,0,0,0,0c.54.4,17.42,13.21,23.37,17.23s70.34,32.7,81.44,36.6,58.55,17.41,58.55,17.41C212.52,256.9,213.73,258.67,215.36,261Z" style="fill:#dbdbdb"></path><g style="opacity:0.5"><path d="M268.92,71.93c-12.41,30-25.36,61.4-35.47,92.21C228.78,180,224.68,195.9,220.94,212c-1.29,6.06-3,12.05-3.67,18.23-.92,10.25-1.43,20.54-1.91,30.82.84-8.19,1.55-16.39,2.45-24.57a81.13,81.13,0,0,1,1.79-12.11c4.89-19.95,10-39.91,15.91-59.55,9.57-29.82,22.93-63.24,33.41-92.84Z" style="fill:#c7c7c7"></path><path d="M115.37,57.26c7.12,21.18,13.83,42.53,22.19,63.26,5.54,12.21,11.71,24.16,17.74,36.11l16.19,31.85c4.23,7.89,7.73,16.22,12.28,23.86,13.52,22.87,28.16,45.94,44.1,67.26,7.06,9.6,14.08,19.22,21.23,28.75L228.73,279c-15.51-21.59-29.76-44.81-43.21-67.66-14.93-29.13-29.9-58.22-44.6-87.45A170.51,170.51,0,0,1,134,107.51c-4.41-11.61-14.2-38.35-18.61-50.25Z" style="fill:#c7c7c7"></path><path d="M48.52,184.67c8.11,6.34,16,13.07,24.61,18.7C83.86,209.15,95,214.17,106,219.24c15.35,6.95,30.68,13.92,46.43,20,12.42,4.2,25.12,7.46,37.73,11,7.23,1.92,14.45,3.88,21.71,5.7l-21.41-6.72c-10-3.16-27.66-8.39-37.39-11.8-8.68-3.35-17.19-7.21-25.74-10.94-17.94-7.88-36-15.61-53.59-24.21-8.71-5.38-16.82-11.75-25.24-17.58Z" style="fill:#c7c7c7"></path><path d="M262.35,150.55c-4.84,7.91-11.24,19.25-16.48,26.71a52.49,52.49,0,0,1-5.25,5.72q-8.2,8.47-16,17.38c1.89-1.83,3.73-3.69,5.6-5.53,4-4,9.77-9.93,13.83-13.92,4.59-4.73,7.52-10.88,10.88-16.46,2.56-4.58,5-9.2,7.37-13.9Z" style="fill:#c7c7c7"></path><path d="M150.39,109.92c1.72,8,4.42,19,5.64,27,.85,4.53.57,9.18,1.35,13.71a117.22,117.22,0,0,0,2.85,13.52c-.78-4.53-1.52-9.06-2-13.63s-.34-9.21-1.11-13.77a203.92,203.92,0,0,0-6.71-26.8Z" style="fill:#c7c7c7"></path><path d="M135.51,170a336.92,336.92,0,0,0,30.64,28.74c2.95,2.48,6.72,3.66,10,5.65,2.25,1.19,4.46,2.46,6.69,3.69a123,123,0,0,0-13.1-7.9,52.61,52.61,0,0,1-5.93-4.61c-9.41-8.24-18.95-17.22-28.3-25.57Z" style="fill:#c7c7c7"></path><path d="M108.5,202a226.63,226.63,0,0,1,19.09,17.84c1.85,2.3,4.62,5.81,6.54,8.16,1.13,1.34,2.23,2.7,3.38,4-1-1.47-2-2.89-3-4.34-1.85-2.57-4.25-6-6.19-8.51-6-6.38-12.47-12.45-19.86-17.17Z" style="fill:#c7c7c7"></path><path d="M74.08,216.16a79.49,79.49,0,0,0,18.23,4,111.7,111.7,0,0,0,14.46-1.65c-1.39,0-2.77.08-4.15.12l-8.25.43c-4.1.22-8.09-.92-12.16-1.43-2.71-.46-5.44-.86-8.13-1.46Z" style="fill:#c7c7c7"></path><path d="M136,260.77c8.57.42,17.11-1.12,25.55-2.43A61.52,61.52,0,0,0,171,256c2-.9,6.46-3.56,8.48-4.63,1.85-1.08,3.72-2.12,5.55-3.23-1.95.89-3.86,1.85-5.79,2.76l-5.74,2.86a21,21,0,0,1-5.87,2.25c-10.31,2.08-21.12,4.07-31.61,4.74Z" style="fill:#c7c7c7"></path><path d="M237.75,114.73A141.74,141.74,0,0,0,233,141.39a194.31,194.31,0,0,0,2.1,21c-.07-2-.2-4-.28-6-.18-3-.53-9-.69-12-.33-6,1.07-11.87,1.73-17.8.6-4,1-7.94,1.87-11.85Z" style="fill:#c7c7c7"></path><path d="M211.27,187.51c.12,6.87.57,13.73,1.14,20.57.18,1.82.53,5.95.8,7.71.95,4.24,3.06,8.11,5,12-1.31-3.78-3.36-8.18-4-12.09-.84-9.35-1.56-18.86-2.88-28.15Z" style="fill:#c7c7c7"></path></g></g><g id="freepik--Table--inject-29"><path d="M41.88,307.46c133.33-.61,282.91-.62,416.24,0-133.33.62-282.91.61-416.24,0Z" style="fill:#263238"></path></g><g id="freepik--Shadows--inject-29"><ellipse cx="171.92" cy="433.24" rx="104.92" ry="25.7" style="fill:#ebebeb"></ellipse><ellipse cx="307.9" cy="392.01" rx="135.79" ry="33.46" style="fill:#ebebeb"></ellipse></g><g id="freepik--Leaves--inject-29"><path d="M222.17,194c1.48-.83-9.31-24.27-14-33.25s-5-27.93-5-35.58-6.65-19-7.64-30.93,0-28.93,0-28.93S221.84,76.65,232.15,87s35.91,49.21,40.9,60.52,22.28,52.87,23.28,71.83,5.32,64.84,9,70.83,3.66,9.31,1.67,9.64-27.27-3.66-33.59-3.32-80.47,11.64-99.43,11-85.13-6-98.1-6.65-27.93-3-29.26-7S56.9,279.5,71.2,270.52s37.57-27.6,56.19-31.59,66.18-4.33,66.18-7S167,209,162,207s-28.93-7.31-51.21-22.94-62.52-56.53-62.52-60.19,24.94-4.66,39.57-3.33S158.89,145.27,170,150.8C186.59,159.12,214.52,198.36,222.17,194Z" style="fill:#455a64"></path><g style="opacity:0.5"><path d="M259.92,257c-16.43-.46-33.88-.9-36.76-.73-5.65.33-50.87,6.32-75.15,11.3S46.59,293.8,46.59,293.8c-1.33-4,10.3-14.3,24.6-23.28s37.58-27.6,56.2-31.59,66.18-4.33,66.18-7S167,209,162,207s-28.93-7.31-51.21-22.94-62.52-56.54-62.52-60.19,24.94-4.66,39.57-3.33S158.89,145.27,170,150.8c16.63,8.32,44.56,47.56,52.21,43.23,1.47-.83-9.31-24.27-14-33.25s-5-27.93-5-35.58-6.65-19-7.65-30.93,0-28.93,0-28.93h0C196,66,208,86,211.75,92.94s27.71,80.84,30.7,93.46,12.31,66.16,12.31,66.16C255.76,253.37,257.56,254.9,259.92,257Z" style="fill:#37474f"></path></g><g style="opacity:0.5"><path d="M46.59,293.8c34.3-10,70.24-20.52,105.16-28,17.86-3.3,35.81-5.95,53.81-8.22,5.64-.68,11.27-1.4,16.94-1.88,12.48-.22,25,.7,37.42,1.28-9.07-.07-18.13-.25-27.19-.24a90.79,90.79,0,0,0-13.5.53c-22.43,3-44.89,6.27-67.1,10.49C121.81,274,77,286.32,46.59,293.8Z" style="fill:#263238"></path><path d="M48.25,123.87c22.35,10.31,45,20.17,66.68,31.74,12.72,7.51,25.09,15.64,37.49,23.63,11.63,7.46,38.17,25,49.57,32,2.88,1.78,5.51,3.72,8.17,5.66,23.49,17.45,47.09,36.12,68.64,56,9.72,8.82,19.46,17.61,29.1,26.51l-29.75-25.78c-5.46-4.72-17-14.84-22.34-19.26-15.4-12.21-30.93-24.31-46.75-36-2.64-1.92-5.32-3.86-8-5.51-27.92-17.26-54.85-36-82.66-53.43A187.22,187.22,0,0,0,101.21,150c-12.21-6.17-40.42-19.91-53-26.09Z" style="fill:#263238"></path><path d="M195.57,65.34c6,9.65,12.39,19.06,17.54,29.18,5.06,12.42,9.25,25.16,13.52,37.87,5.83,17.62,11.7,35.22,16.52,53.16,3.17,14.09,5.31,28.37,7.78,42.59,1.3,8.14,2.63,16.27,3.83,24.42C252,239,244.41,198.72,241.42,186c-2.66-9.91-5.89-19.69-9-29.48-6.58-20.57-13-41.24-20.42-61.51-4.91-10.15-11-19.75-16.44-29.64Z" style="fill:#263238"></path><path d="M133.49,295.68c10-4.77,23.65-10.35,33-16,8.47-6.71,17.06-13.29,25.9-19.53l-6.73,5.46c-5.27,4.24-12.55,9.9-17.71,14.21-5.67,3.95-12.21,6.47-18.43,9.33-5.31,2.29-10.65,4.49-16,6.53Z" style="fill:#263238"></path><path d="M101.9,168.32c9.47,3.21,19.26,6.78,28.88,9.39,4.86,1.45,10,1.68,14.86,3a130.79,130.79,0,0,1,14.51,4.61c-4.86-1.42-9.74-2.78-14.68-3.87s-10.05-1.45-14.95-2.82a236,236,0,0,1-28.62-10.36Z" style="fill:#263238"></path><path d="M169.41,159c7.24,8.57,14.08,17.46,20.73,26.5a135.69,135.69,0,0,1,8.73,13.2c2.08,5.58,4.37,11.1,6.78,16.56a172.28,172.28,0,0,1-7.49-16.2,153.33,153.33,0,0,0-8.82-13c-5.71-7.92-14.09-19.11-19.93-27.09Z" style="fill:#263238"></path><path d="M207.65,133.07a230,230,0,0,0,17.26,23c2.34,2.29,5.86,5.7,8.23,8.07,1.35,1.38,2.72,2.74,4.05,4.14-1.49-1.24-2.92-2.52-4.38-3.78-2.57-2.33-6.12-5.41-8.57-7.8-6.24-7.23-12.25-15.16-16.59-23.67Z" style="fill:#263238"></path><path d="M227.12,97a93.42,93.42,0,0,1,2.17,20.43,137.12,137.12,0,0,1-3.38,15.65c.19-1.51.44-3,.65-4.52.36-2.24,1.1-6.74,1.47-9,.72-4.48-.07-9-.18-13.51-.21-3-.35-6.06-.73-9.07Z" style="fill:#263238"></path><path d="M268.84,170c-.15,4.73-1.26,9.36-2.21,14a174.75,174.75,0,0,1-5.7,20.46,23.3,23.3,0,0,1-3.32,6.32q-4,5.85-8.24,11.49c1.42-2.31,8.25-12.75,9.39-14.91,3.22-7.53,5-15.65,7.12-23.54a116.74,116.74,0,0,0,3-13.79Z" style="fill:#263238"></path><path d="M97.08,264.59a111.59,111.59,0,0,1,13.16-1.51,150.56,150.56,0,0,1,16.59-.49,232,232,0,0,1,22.75,4.62l-6.54-1L130,264c-6.52-1-13.15-.22-19.72-.13-4.4.22-8.82.25-13.2.75Z" style="fill:#263238"></path><path d="M179.88,244c7.51,1,15,2.33,22.39,3.71l5.56,1.15c5.71.91,10.54,4.4,15.34,7.37-5-2.43-9.9-5.65-15.52-6.48C198.42,248,189,246.16,179.88,244Z" style="fill:#263238"></path></g></g><g id="freepik--Fruit--inject-29"><path d="M231.8,205.17c-1.1.42-4.08,1.49-6.67,1-4.15-.76-14.16-5.41-17.06-6.77-3.35-1.57-11.89-7.64-15.89-9.71s-11.2-3.46-15.75-7.34c-3.87-3.32-12-10.28-13.82-13-3.83-5.84-8.5-12.49-12.12-20.16-.47-1-.28-2.87-.69-3.93-.92-2.37-12.12-.92-12.4.85-.21,1.29,1.88,3.5,2.34,4.37,3.67,7,11,20.93,13.8,24.64,3.73,4.9,15.81,15.9,16.71,16.43s10.43,9.69,14.19,10.68,17.05,4.88,18.88,5.76,14.93,6.93,16.91,9,2.42,8,2.42,8l6.74-10.75Z" style="fill:#FFC100"></path><path d="M231.8,205.17c-1.1.42-4.08,1.49-6.67,1-4.15-.76-14.16-5.41-17.06-6.77-3.35-1.57-11.89-7.64-15.89-9.71s-11.2-3.46-15.75-7.34c-3.87-3.32-12-10.28-13.82-13-3.83-5.84-8.5-12.49-12.12-20.16-.47-1-.28-2.87-.69-3.93-.92-2.37-12.12-.92-12.4.85-.21,1.29,1.88,3.5,2.34,4.37,3.67,7,11,20.93,13.8,24.64,3.73,4.9,15.81,15.9,16.71,16.43s10.43,9.69,14.19,10.68,17.05,4.88,18.88,5.76,14.93,6.93,16.91,9,2.42,8,2.42,8l6.74-10.75Z" style="opacity:0.6000000000000001"></path><path d="M367.89,161c64.28,23.62,96.53,106.07,61.57,161.1S344,383.94,294.53,370.29,195.9,288.5,223.38,221.13C241.8,176,303.62,137.35,367.89,161Z" style="fill:#FFC100"></path><path d="M367.89,161c64.28,23.62,96.53,106.07,61.57,161.1S344,383.94,294.53,370.29,195.9,288.5,223.38,221.13C241.8,176,303.62,137.35,367.89,161Z" style="opacity:0.4"></path><path d="M429.46,322.09c-34.95,55-85.47,61.85-134.94,48.2S195.9,288.5,223.39,221.13c1-2.41,2.09-4.81,3.32-7.18-24.22,62.45,20.95,125.13,66.46,137.72,45.88,12.71,92.75,6.28,125.24-45.16,27.12-42.94,10.81-103.69-30-135.39C438.59,202.88,460.47,273.28,429.46,322.09Z" style="opacity:0.1"></path><g style="opacity:0.30000000000000004"><path d="M367.37,161.15c45.24,16.12,68.34,71.29,44.12,107.8s-59.63,40.78-94.42,31.39-69.68-55.11-50.77-99.89C279,170.43,322.13,145,367.37,161.15Z" style="fill:#FFC100"></path><path d="M245.19,250c6.55,2.47,9.78,11.26,6.17,17.17s-8.78,6.68-13.82,5.25-10-8.66-7.16-15.88C232.3,251.72,238.64,247.54,245.19,250Z" style="fill:#FFC100"></path><path d="M400.07,270.9c6.54,2.48,9.77,11.26,6.16,17.17s-8.77,6.68-13.82,5.26-10-8.67-7.15-15.89C387.18,272.6,393.52,268.42,400.07,270.9Z" style="fill:#FFC100"></path><path d="M237.44,276.57a4.12,4.12,0,0,1,2.15,5.76,3.88,3.88,0,0,1-4.75,1.74,4.11,4.11,0,0,1-2.48-5.33A4.06,4.06,0,0,1,237.44,276.57Z" style="fill:#FFC100"></path><path d="M410.32,271.93a4.12,4.12,0,0,1,2.14,5.76,3.9,3.9,0,0,1-4.75,1.74,4.13,4.13,0,0,1-2.48-5.33A4.06,4.06,0,0,1,410.32,271.93Z" style="fill:#FFC100"></path><path d="M300.24,160.69a4.12,4.12,0,0,1,2.15,5.76,3.91,3.91,0,0,1-4.75,1.74,4.14,4.14,0,0,1-2.49-5.34A4.06,4.06,0,0,1,300.24,160.69Z" style="fill:#FFC100"></path><path d="M221.47,249.91a2.35,2.35,0,0,1,1.22,3.28,2.23,2.23,0,0,1-2.7,1,2.36,2.36,0,0,1-1.42-3A2.31,2.31,0,0,1,221.47,249.91Z" style="fill:#FFC100"></path><path d="M432,267.66a2.35,2.35,0,0,1,1.22,3.28,2.22,2.22,0,0,1-2.7,1,2.36,2.36,0,0,1-1.42-3A2.31,2.31,0,0,1,432,267.66Z" style="fill:#FFC100"></path><path d="M301.2,344a2.35,2.35,0,0,1,1.23,3.28,2.23,2.23,0,0,1-2.71,1,2.34,2.34,0,0,1-1.41-3A2.3,2.3,0,0,1,301.2,344Z" style="fill:#FFC100"></path><path d="M260.28,274.42c2.76,1,4.13,4.62,2.62,7a4.75,4.75,0,0,1-5.79,2.13,5,5,0,0,1-3-6.51A5,5,0,0,1,260.28,274.42Z" style="fill:#FFC100"></path><path d="M376.44,305.71c2.76,1,4.13,4.62,2.62,7a4.74,4.74,0,0,1-5.79,2.12,5,5,0,0,1-3-6.5A4.94,4.94,0,0,1,376.44,305.71Z" style="fill:#FFC100"></path><path d="M322.92,352.07c2.75,1,4.12,4.62,2.62,7a4.76,4.76,0,0,1-5.8,2.12,5,5,0,0,1-3-6.5A5,5,0,0,1,322.92,352.07Z" style="fill:#FFC100"></path></g></g><g id="freepik--half-fruit--inject-29"><path d="M57.15,356.53C62.8,376.12,99.78,464.79,200,442.68c50.08-11,93.38-62.76,85.79-129.59-1.84-16.2-31.3-42.1-56.33-51.24s-58-20.69-106,1.88C76,286,50.89,334.81,57.15,356.53Z" style="fill:#FFC100"></path><path d="M57.15,356.53C62.8,376.12,99.78,464.79,200,442.68c50.08-11,93.38-62.76,85.79-129.59-1.84-16.2-31.3-42.1-56.33-51.24s-58-20.69-106,1.88C76,286,50.89,334.81,57.15,356.53Z" style="opacity:0.30000000000000004"></path><path d="M200,442.68C99.78,464.79,62.8,376.12,57.15,356.53c-1.36-4.72-1.24-10.72.28-17.45a23.52,23.52,0,0,0,.78,4.32C63.53,362,98.37,446.23,192.79,425.23c47.18-10.49,88-59.61,80.82-123.09-.77-6.85-6.69-15.52-15.11-23.8,14.57,11.15,26.16,24.78,27.29,34.75C293.38,379.92,250.08,431.64,200,442.68Z" style="opacity:0.1"></path><g style="opacity:0.30000000000000004"><path d="M265.3,343.15c-5.69,1.19-9.48,8-7.28,13.29s6.33,6.61,10.65,6.1,9.33-5.81,7.93-12.1A9.79,9.79,0,0,0,265.3,343.15Z" style="fill:#FFC100"></path><path d="M218.81,381.75a3.43,3.43,0,0,0-2.51,4.45,3.23,3.23,0,0,0,3.67,2,3.42,3.42,0,0,0,2.73-4.05A3.38,3.38,0,0,0,218.81,381.75Z" style="fill:#FFC100"></path><path d="M242.72,378.94a2,2,0,0,0-1.43,2.53,1.85,1.85,0,0,0,2.09,1.17,2,2,0,0,0,1.55-2.31A1.92,1.92,0,0,0,242.72,378.94Z" style="fill:#FFC100"></path><path d="M74.81,377.07a2,2,0,0,0-1.43,2.53,1.84,1.84,0,0,0,2.09,1.16,2,2,0,0,0,1.56-2.3A1.92,1.92,0,0,0,74.81,377.07Z" style="fill:#FFC100"></path><path d="M127.15,404.07a1.94,1.94,0,0,0-1.42,2.53,1.83,1.83,0,0,0,2.08,1.16,1.88,1.88,0,1,0-.66-3.69Z" style="fill:#FFC100"></path><path d="M159.13,425.51A2,2,0,0,0,157.7,428a1.84,1.84,0,0,0,2.09,1.16,1.94,1.94,0,0,0,1.55-2.3A1.9,1.9,0,0,0,159.13,425.51Z" style="fill:#FFC100"></path><path d="M242.31,392.68a4.17,4.17,0,0,0-3.06,5.42,4,4,0,0,0,4.48,2.49,4.18,4.18,0,0,0,3.33-4.94A4.12,4.12,0,0,0,242.31,392.68Z" style="fill:#FFC100"></path><path d="M97.85,394a4.17,4.17,0,0,0-3.06,5.42,3.94,3.94,0,0,0,4.48,2.49A4.18,4.18,0,0,0,102.6,397,4.12,4.12,0,0,0,97.85,394Z" style="fill:#FFC100"></path><path d="M140.28,429.3a4.17,4.17,0,0,0-3.06,5.42,3.94,3.94,0,0,0,4.47,2.49,4.16,4.16,0,0,0,3.33-4.94A4.1,4.1,0,0,0,140.28,429.3Z" style="fill:#FFC100"></path></g><path d="M285.79,313.09c.46,29.36-20.62,46.29-43.54,59.55S174,399.42,128.48,396.11,62.61,371,57.15,356.53c-6.26-21.72,18.9-70.54,66.28-92.81,48-22.56,81-11,106-1.87S284,296.89,285.79,313.09Z" style="fill:#FFC100"></path><path d="M285.79,313.09c.46,29.36-20.62,46.29-43.54,59.55S174,399.42,128.48,396.11,62.61,371,57.15,356.53c-6.26-21.72,18.9-70.54,66.28-92.81,48-22.56,81-11,106-1.87S284,296.89,285.79,313.09Z" style="opacity:0.2"></path><path d="M268.6,303l-.15,0S268.53,303,268.6,303Z" style="fill:#FFC100;opacity:0.8"></path><path d="M278.43,314c-.17,12.59-5.23,22.53-12.91,30.75-.22.12-.44.25-.68.37-1.18.65-2.22,1.35-3.34,2.1a18.94,18.94,0,0,0-3.19,2.82c-1.14,0,.22-.73.34-1.51a8.1,8.1,0,0,1-2.15,2,9,9,0,0,1-2.19,1.05,15.45,15.45,0,0,0-4.52,2l.27.51a37.58,37.58,0,0,0-8,3.82c-1.36.76-2.68,1.58-4.09,2.33-.7.37-1.4.73-2.11,1.08a19.56,19.56,0,0,1-2.13.92l.83,0a10.59,10.59,0,0,1-2.4,2.2c-.26-.18.08-1.41-1.35-.4.41,0,1.15-.13,1.09.22a89,89,0,0,0-10.71,3.45c-2.14.75-4.4,1.5-6.65,2.23s-4.5,1.33-6.65,1.8c-11.19,3.94-24.08,5.75-35.54,7.7,1.76-.28,1.22,1.21-.17,1.08a6.77,6.77,0,0,0-5.11-.21,8.66,8.66,0,0,1-5.08.21c-3.34.78-6.57.59-9.72.64-1.58,0-3.13,0-4.68.11a21,21,0,0,0-4.67.88l-.13-.67c-.94-.32-1.19.15-2.18.21l0-.18c-2.32-.29-5.15.43-6.47,0l-.11.75c-1.38,0-.7-.62-2.12-.25l.06-.38-1.69.64c.23-1.32-3.9-.26-4.92-1-.89,0-2.17.11-3.57.12-.7,0-1.43,0-2.14-.05a13.07,13.07,0,0,1-2-.37c-.39-.76-3.6-1.19-5.56-1.89l-3.21-.55-1.77-.32a16.73,16.73,0,0,1-1.84-.39A52.48,52.48,0,0,1,98,375.63l-.19.85-1.25-.37c.07-.17-.05-.33.16-.34-.31-.62-1-.79-1.79-.92a3.13,3.13,0,0,1-1.85-.79c.3,1,.79.46,1.45.76.83.78-.41,1.2-1.58.23l.1-.16-1.08,0c.17-.65-.53-1.28-.36-1.93-.49-.19-1-.34-1.45-.49s-.89-.33-1.32-.48c-.87-.29-1.73-.55-2.6-.82a16.26,16.26,0,0,1-2.5-1,16.78,16.78,0,0,1-2.55-1.52c.77-.39-2.6-1.55-1.16-2.14-2.36-1-.28,1.09-1.76,1.19a4.63,4.63,0,0,0-.65-.36c-.19-.15-.38-.3-.56-.46a.3.3,0,0,1,0-.23c.45,0,0-1,.57-.72l-1.37-1c-.06-.18.34-.09.54,0a7.35,7.35,0,0,1-2-1.36,22,22,0,0,1-1.44-1.67c-.48-.53-.87-1.11-1.31-1.64a7,7,0,0,0-1.59-1.41c-.52.16.69.93.19,1.09a3.25,3.25,0,0,1-1.32-1.09,3,3,0,0,1-.45-1,4.4,4.4,0,0,0-.37-1,3.82,3.82,0,0,0-1-1.17l.85.07a8.36,8.36,0,0,1-1.12-.55,1.67,1.67,0,0,1-.44-.47,2.9,2.9,0,0,1-.22-.83c.29-.29.55-.13.83.14a4.41,4.41,0,0,0,1,.83,7.18,7.18,0,0,0-.53-.71,8,8,0,0,0-.59-.76c-.39-.43-.79-.67-.93-.21-.8-.83-.23-1.46-.29-2-.18.05-.08,1.06-.64.67a2.16,2.16,0,0,1,0-.27,1.66,1.66,0,0,1,0-.24c0-.09,0-.22,0-.24a.59.59,0,0,0,.06-.14,3.73,3.73,0,0,0-.08-.46c0-.36,0-.75-.1-1.13s0-.83,0-1.2c.19,0,.48-.11.58,0a.92.92,0,0,1-.34-.73,1.15,1.15,0,0,1,.29-.54,2.34,2.34,0,0,0,.42-.61,2.12,2.12,0,0,0,.23-1.08,43.23,43.23,0,0,1,1.37-9.23,38.82,38.82,0,0,1,3.8-9.5c-.29-1.7.69-3.52,1.55-5.4l1.28.49.52-1.68c.71-.38-.47,1.26.61.47l-.38-1c.49.14,2.7-3.5,1.93-.58l.91-1.38,1-1.35c.64-.91,1.29-1.81,2-2.68.93-1.15-.39-1.38.9-2.47.51,0-.17.63.3.82a7.58,7.58,0,0,0,2.72-4.59,12,12,0,0,1,.72-2.28,6.86,6.86,0,0,1,1.84-2.25l-.09.26c.35-.81,1.32-1.74,1.2-1.87-1.4-.51-.08,1.08-1.62,1.58-.77-.87.77-1.72.09-2.25,1.08-.49,1.07-1.41,1.71-2.15,1.7-.64,3.08-2.66,4.62-2.82.36-.79.29-2.23,1.59-3.43,1.55-.11.33.84,1.86,0l-.22-.68c1.15-.81,1.1-.52,1.26-.25,1.16-.93.38-1.49,2.14-2.3l-.43,1.14a14,14,0,0,1,3-2.4c.19.32-.45.76-1,1,1.41.15,1.18-1.38,1.7-1.63-.29-.14-1.47.53-1.32-.38.85-.46,1.15-1.92,2.16-1.68l-.49,1.13c1.35-1.57.39-1.32,2.46-2.38-.08.11.07.21.11.36a3.92,3.92,0,0,1,1.88-1.67c.83-.43,1.83-.76,2.75-1.31l-.25.37c.62-.64.73-1.4,1.15-1.6-1.25.31-1.06,0-1.49-.52,2,.07,1.53-2.35,4.21-3.13.15.36-.19,1.08-1,1.09-.24,1.43.13,2.29-1,3.54.65-.65,1.51-1.29,1.67-1l-.21-.95c.52-.31,1-.49,1.37-.72-.09-.71-1.61-.33-.58-1.41,1.25-1.08,1.27.53,1.26,0,1.77-1.37.29-1.4,2.36-2.07a1.88,1.88,0,0,1-.55.5c1.51-.39,3.22-1.79,4.15-.86-.09.35,0,.71-.53.86l-.06-.18c-1,1.4.81-.46,1.13.19.15-.52,1.74-1.14,2.57-1.34l-.59-.59c2.07-3.33.45,1.46,3.28,0,1.67-1.24-.8.09.14-.88,1.33-.39,2.05,0,3.78-1a10.19,10.19,0,0,1,1.19.14,1.52,1.52,0,0,1,1,.69c1-.71,3.56-.81,3.93-1.82-2.18,0-1.62,1.51-4.28,1.24l.35-1c1.59-.49,3.48-1.59,4.67-1.68-.27-.08-.44-.25-.36-.47a20.06,20.06,0,0,0,2.39-1.51,6.34,6.34,0,0,1,2.51-.94c.51.66-.83.89-1.77,1.22,1.63.19,1.52-.37,3.83-.75.3.62-1.51.38-1.59,1.08l2.41-.89a.89.89,0,0,0,0,.14c0-.6.51-.7,1.16-.75.32,0,.68,0,1.06-.1a3.59,3.59,0,0,0,1.12-.26c3.62-.75,3.86-2.35,5.74-3.67.6.21.82.47.64.79-1-.35-.76,0-1,.38,1.22-.39,2.89.66,2.28,1.19,1.9-.61-.8-.48.34-1l2.7-.33c-.4-.52-1.38-.5,0-1.14a8.83,8.83,0,0,1,1.51-.31c.49-.05,1-.1,1.81-.13-.19.3.57.83-.58.89.77.15,1.93.08,2.33-.51-1.75-.38,2.75-.72,1.41-1.51l1.76.38c-.4,0-.42.4-1,.34.55.83,1.38-.37,2-.5.61.15,2.18.2,2.32.53.54-.25,1.86-.09,2.11.35.81-.19.07-.57.3-.86.91,0,1.82,0,2.74.07.13.46.31,1.69,0,2,.94-.42.37-1.37,1.89-1.27-.92.9,2,.8.68,1.86a4.36,4.36,0,0,0,2.17.64,15.1,15.1,0,0,0,2.56.07c.9-.66-1.46-.57-1.32-1.32a8.22,8.22,0,0,0,4-.86,7.15,7.15,0,0,1,1.45-.51,4.09,4.09,0,0,1,1.79.14l-.73-.32a6,6,0,0,0,2.82-.58c-.64.87,1.66,2.75,4.6,3.17.34-.41-1.47-1.21-.86-1.85l2,.25c.13.1-.12.21-.4.28a4.84,4.84,0,0,1,2.29.8c.61.36,1.09.59,1.47.12l1.44,1.76-.56-.73c.35-.4,2.34-.07,2.8-.15a4.45,4.45,0,0,1,3.68,1.51c-.24-.47-.87-1.56.74-1.26-.21.73.57,1.08,1.37,1.37s1.63.51,1.49.88c.64.18,1.61,1,1.88.39l-.4.88c.55-1.24,2.84-.45,4.67-.08-1,1.58,2,.5,2.23,2.33.74-1.05,3.3.61,4-.26,1.36.41.81,1.44,1,1.92l.75-.22c.44.76,2.78,1.78,4,2.76.58-.15,1.16-.29,1.74-.41l.27.67c.32-.16,1.47.2,1-.48l.68.39c.58-1,1.13.18,2.76.44.23.33,0,.54-.36.52.65.36.17.72.29,1.23,0-.46,3.42-.57,1.88-2,.1-.49,1.38-.22,2,.35l-.1,1.15,1.37-.52c1.14.48,1.25,1.33,2,1.93-.91-.45-3,.63-.74,1.91a8.86,8.86,0,0,0-2.81-.54c.43.3.6.52-.33.5,1.88.71.91-.23,2.67.65-.59.75-.27,1.3,1,2.46l-.72-1.25a.63.63,0,0,1,.34-.1c-.36-.34-.4-.53-.3-.9.3.19,2.16.19,2.49.68-.59-2,3.63,1.07,3.06-.32.34-.1,1.55.63,1.41,1.11-1.81-.34.43,1.59-.18,2,.67.12-.68-1.32.21-1.15a3.88,3.88,0,0,1,1.4,2l-.44-.1c.34.41.67.82,1,1.24.48-.24-.73-1.53.56-.89.18.37,1.48,1,1.21,1.29-.93.13-1.06,1.11-2.12.54.85.51,3.41,2.33,2.94.85l.93.74c-.34-.76-1.58-2.61.41-1.26l-.13.14c.59.14,1.18.31,1.77.47l.26.83c.13-.2.48-.21.95.19-.05.32.32.78,0,1.05,1.41,1.1,1.61.64,2,.59.8.6,1,1,.23,1.11.95,1,2.8,2.49,3.12,3.5,1.61.95-.14-.4,1.08-.14,0,2.27,3.76,4.66,5.76,6.79.59-1.45.65.32,1.84.15-.27.37.76,2.63-.91,1.07l1.05,1.13c0,1.28-2-1.63-1.93.26,1,1.28,3,1.29,3.57,3.23-1.21,0,1,1.09-.19,1.25-.52-.16-.66-.65-1-1.06,0,.13,0,.25,0,.38.75,1.55,1.09,1.61,1.5,1.45s.81-.57,1.56.1c1,1.87-.09,1.8-.5,2.08-.08.29.26.92.58,1.33a1.18,1.18,0,0,1-.1-1.17c.2-.42.61-.72,1-.56a1.82,1.82,0,0,0,.16,1.89,9.65,9.65,0,0,0,.56.79,4.09,4.09,0,0,0,.52.55C278.38,314.22,278.4,314.11,278.43,314Z" style="fill:#FFC100"></path><path d="M278.43,314c-.17,12.59-5.23,22.53-12.91,30.75-.22.12-.44.25-.68.37-1.18.65-2.22,1.35-3.34,2.1a18.94,18.94,0,0,0-3.19,2.82c-1.14,0,.22-.73.34-1.51a8.1,8.1,0,0,1-2.15,2,9,9,0,0,1-2.19,1.05,15.45,15.45,0,0,0-4.52,2l.27.51a37.58,37.58,0,0,0-8,3.82c-1.36.76-2.68,1.58-4.09,2.33-.7.37-1.4.73-2.11,1.08a19.56,19.56,0,0,1-2.13.92l.83,0a10.59,10.59,0,0,1-2.4,2.2c-.26-.18.08-1.41-1.35-.4.41,0,1.15-.13,1.09.22a89,89,0,0,0-10.71,3.45c-2.14.75-4.4,1.5-6.65,2.23s-4.5,1.33-6.65,1.8c-11.19,3.94-24.08,5.75-35.54,7.7,1.76-.28,1.22,1.21-.17,1.08a6.77,6.77,0,0,0-5.11-.21,8.66,8.66,0,0,1-5.08.21c-3.34.78-6.57.59-9.72.64-1.58,0-3.13,0-4.68.11a21,21,0,0,0-4.67.88l-.13-.67c-.94-.32-1.19.15-2.18.21l0-.18c-2.32-.29-5.15.43-6.47,0l-.11.75c-1.38,0-.7-.62-2.12-.25l.06-.38-1.69.64c.23-1.32-3.9-.26-4.92-1-.89,0-2.17.11-3.57.12-.7,0-1.43,0-2.14-.05a13.07,13.07,0,0,1-2-.37c-.39-.76-3.6-1.19-5.56-1.89l-3.21-.55-1.77-.32a16.73,16.73,0,0,1-1.84-.39A52.48,52.48,0,0,1,98,375.63l-.19.85-1.25-.37c.07-.17-.05-.33.16-.34-.31-.62-1-.79-1.79-.92a3.13,3.13,0,0,1-1.85-.79c.3,1,.79.46,1.45.76.83.78-.41,1.2-1.58.23l.1-.16-1.08,0c.17-.65-.53-1.28-.36-1.93-.49-.19-1-.34-1.45-.49s-.89-.33-1.32-.48c-.87-.29-1.73-.55-2.6-.82a16.26,16.26,0,0,1-2.5-1,16.78,16.78,0,0,1-2.55-1.52c.77-.39-2.6-1.55-1.16-2.14-2.36-1-.28,1.09-1.76,1.19a4.63,4.63,0,0,0-.65-.36c-.19-.15-.38-.3-.56-.46a.3.3,0,0,1,0-.23c.45,0,0-1,.57-.72l-1.37-1c-.06-.18.34-.09.54,0a7.35,7.35,0,0,1-2-1.36,22,22,0,0,1-1.44-1.67c-.48-.53-.87-1.11-1.31-1.64a7,7,0,0,0-1.59-1.41c-.52.16.69.93.19,1.09a3.25,3.25,0,0,1-1.32-1.09,3,3,0,0,1-.45-1,4.4,4.4,0,0,0-.37-1,3.82,3.82,0,0,0-1-1.17l.85.07a8.36,8.36,0,0,1-1.12-.55,1.67,1.67,0,0,1-.44-.47,2.9,2.9,0,0,1-.22-.83c.29-.29.55-.13.83.14a4.41,4.41,0,0,0,1,.83,7.18,7.18,0,0,0-.53-.71,8,8,0,0,0-.59-.76c-.39-.43-.79-.67-.93-.21-.8-.83-.23-1.46-.29-2-.18.05-.08,1.06-.64.67a2.16,2.16,0,0,1,0-.27,1.66,1.66,0,0,1,0-.24c0-.09,0-.22,0-.24a.59.59,0,0,0,.06-.14,3.73,3.73,0,0,0-.08-.46c0-.36,0-.75-.1-1.13s0-.83,0-1.2c.19,0,.48-.11.58,0a.92.92,0,0,1-.34-.73,1.15,1.15,0,0,1,.29-.54,2.34,2.34,0,0,0,.42-.61,2.12,2.12,0,0,0,.23-1.08,43.23,43.23,0,0,1,1.37-9.23,38.82,38.82,0,0,1,3.8-9.5c-.29-1.7.69-3.52,1.55-5.4l1.28.49.52-1.68c.71-.38-.47,1.26.61.47l-.38-1c.49.14,2.7-3.5,1.93-.58l.91-1.38,1-1.35c.64-.91,1.29-1.81,2-2.68.93-1.15-.39-1.38.9-2.47.51,0-.17.63.3.82a7.58,7.58,0,0,0,2.72-4.59,12,12,0,0,1,.72-2.28,6.86,6.86,0,0,1,1.84-2.25l-.09.26c.35-.81,1.32-1.74,1.2-1.87-1.4-.51-.08,1.08-1.62,1.58-.77-.87.77-1.72.09-2.25,1.08-.49,1.07-1.41,1.71-2.15,1.7-.64,3.08-2.66,4.62-2.82.36-.79.29-2.23,1.59-3.43,1.55-.11.33.84,1.86,0l-.22-.68c1.15-.81,1.1-.52,1.26-.25,1.16-.93.38-1.49,2.14-2.3l-.43,1.14a14,14,0,0,1,3-2.4c.19.32-.45.76-1,1,1.41.15,1.18-1.38,1.7-1.63-.29-.14-1.47.53-1.32-.38.85-.46,1.15-1.92,2.16-1.68l-.49,1.13c1.35-1.57.39-1.32,2.46-2.38-.08.11.07.21.11.36a3.92,3.92,0,0,1,1.88-1.67c.83-.43,1.83-.76,2.75-1.31l-.25.37c.62-.64.73-1.4,1.15-1.6-1.25.31-1.06,0-1.49-.52,2,.07,1.53-2.35,4.21-3.13.15.36-.19,1.08-1,1.09-.24,1.43.13,2.29-1,3.54.65-.65,1.51-1.29,1.67-1l-.21-.95c.52-.31,1-.49,1.37-.72-.09-.71-1.61-.33-.58-1.41,1.25-1.08,1.27.53,1.26,0,1.77-1.37.29-1.4,2.36-2.07a1.88,1.88,0,0,1-.55.5c1.51-.39,3.22-1.79,4.15-.86-.09.35,0,.71-.53.86l-.06-.18c-1,1.4.81-.46,1.13.19.15-.52,1.74-1.14,2.57-1.34l-.59-.59c2.07-3.33.45,1.46,3.28,0,1.67-1.24-.8.09.14-.88,1.33-.39,2.05,0,3.78-1a10.19,10.19,0,0,1,1.19.14,1.52,1.52,0,0,1,1,.69c1-.71,3.56-.81,3.93-1.82-2.18,0-1.62,1.51-4.28,1.24l.35-1c1.59-.49,3.48-1.59,4.67-1.68-.27-.08-.44-.25-.36-.47a20.06,20.06,0,0,0,2.39-1.51,6.34,6.34,0,0,1,2.51-.94c.51.66-.83.89-1.77,1.22,1.63.19,1.52-.37,3.83-.75.3.62-1.51.38-1.59,1.08l2.41-.89a.89.89,0,0,0,0,.14c0-.6.51-.7,1.16-.75.32,0,.68,0,1.06-.1a3.59,3.59,0,0,0,1.12-.26c3.62-.75,3.86-2.35,5.74-3.67.6.21.82.47.64.79-1-.35-.76,0-1,.38,1.22-.39,2.89.66,2.28,1.19,1.9-.61-.8-.48.34-1l2.7-.33c-.4-.52-1.38-.5,0-1.14a8.83,8.83,0,0,1,1.51-.31c.49-.05,1-.1,1.81-.13-.19.3.57.83-.58.89.77.15,1.93.08,2.33-.51-1.75-.38,2.75-.72,1.41-1.51l1.76.38c-.4,0-.42.4-1,.34.55.83,1.38-.37,2-.5.61.15,2.18.2,2.32.53.54-.25,1.86-.09,2.11.35.81-.19.07-.57.3-.86.91,0,1.82,0,2.74.07.13.46.31,1.69,0,2,.94-.42.37-1.37,1.89-1.27-.92.9,2,.8.68,1.86a4.36,4.36,0,0,0,2.17.64,15.1,15.1,0,0,0,2.56.07c.9-.66-1.46-.57-1.32-1.32a8.22,8.22,0,0,0,4-.86,7.15,7.15,0,0,1,1.45-.51,4.09,4.09,0,0,1,1.79.14l-.73-.32a6,6,0,0,0,2.82-.58c-.64.87,1.66,2.75,4.6,3.17.34-.41-1.47-1.21-.86-1.85l2,.25c.13.1-.12.21-.4.28a4.84,4.84,0,0,1,2.29.8c.61.36,1.09.59,1.47.12l1.44,1.76-.56-.73c.35-.4,2.34-.07,2.8-.15a4.45,4.45,0,0,1,3.68,1.51c-.24-.47-.87-1.56.74-1.26-.21.73.57,1.08,1.37,1.37s1.63.51,1.49.88c.64.18,1.61,1,1.88.39l-.4.88c.55-1.24,2.84-.45,4.67-.08-1,1.58,2,.5,2.23,2.33.74-1.05,3.3.61,4-.26,1.36.41.81,1.44,1,1.92l.75-.22c.44.76,2.78,1.78,4,2.76.58-.15,1.16-.29,1.74-.41l.27.67c.32-.16,1.47.2,1-.48l.68.39c.58-1,1.13.18,2.76.44.23.33,0,.54-.36.52.65.36.17.72.29,1.23,0-.46,3.42-.57,1.88-2,.1-.49,1.38-.22,2,.35l-.1,1.15,1.37-.52c1.14.48,1.25,1.33,2,1.93-.91-.45-3,.63-.74,1.91a8.86,8.86,0,0,0-2.81-.54c.43.3.6.52-.33.5,1.88.71.91-.23,2.67.65-.59.75-.27,1.3,1,2.46l-.72-1.25a.63.63,0,0,1,.34-.1c-.36-.34-.4-.53-.3-.9.3.19,2.16.19,2.49.68-.59-2,3.63,1.07,3.06-.32.34-.1,1.55.63,1.41,1.11-1.81-.34.43,1.59-.18,2,.67.12-.68-1.32.21-1.15a3.88,3.88,0,0,1,1.4,2l-.44-.1c.34.41.67.82,1,1.24.48-.24-.73-1.53.56-.89.18.37,1.48,1,1.21,1.29-.93.13-1.06,1.11-2.12.54.85.51,3.41,2.33,2.94.85l.93.74c-.34-.76-1.58-2.61.41-1.26l-.13.14c.59.14,1.18.31,1.77.47l.26.83c.13-.2.48-.21.95.19-.05.32.32.78,0,1.05,1.41,1.1,1.61.64,2,.59.8.6,1,1,.23,1.11.95,1,2.8,2.49,3.12,3.5,1.61.95-.14-.4,1.08-.14,0,2.27,3.76,4.66,5.76,6.79.59-1.45.65.32,1.84.15-.27.37.76,2.63-.91,1.07l1.05,1.13c0,1.28-2-1.63-1.93.26,1,1.28,3,1.29,3.57,3.23-1.21,0,1,1.09-.19,1.25-.52-.16-.66-.65-1-1.06,0,.13,0,.25,0,.38.75,1.55,1.09,1.61,1.5,1.45s.81-.57,1.56.1c1,1.87-.09,1.8-.5,2.08-.08.29.26.92.58,1.33a1.18,1.18,0,0,1-.1-1.17c.2-.42.61-.72,1-.56a1.82,1.82,0,0,0,.16,1.89,9.65,9.65,0,0,0,.56.79,4.09,4.09,0,0,0,.52.55C278.38,314.22,278.4,314.11,278.43,314Z" style="fill:#fff;opacity:0.7000000000000001"></path><path d="M263.79,314.59c.37,20.89-16.48,32.93-34.81,42.36a129,129,0,0,1-20,8c-4.74-.12-4.65-6.79-6.44-6.09s-7.65,9.9-13.81,10.22-13.94-4.42-16.67-3.59-2.79,5.65-6.25,5.38-6.75-7.05-8.83-6.63-6.07,9.8-13.39,9.71c-1.84-.06-3.68-.14-5.53-.27-36.42-2.36-52.67-17.88-57-28.15-2.51-7.76,1.32-20.38,10.55-33h0c4.1-3.05,8.51-5,10.86-6.78s5.65-8.84,7-9.94,6.07-2.62,7-4.28a49.93,49.93,0,0,1,4.45-5.38h0a104.63,104.63,0,0,1,13-6.56c38.38-16.05,64.76-7.84,84.78-1.34,1.16.38,2.34.8,3.52,1.25,3.7,3.48-1.83,2.38-1.28,5.32s14.63.94,22.52,6.23l.53.38a4.25,4.25,0,0,1,.43.31l.69.5,0,0C255.29,299.61,263,308.18,263.79,314.59Z" style="fill:#FFC100"></path><path d="M245.16,292.14a8.13,8.13,0,0,1-.69-.5Z" style="fill:#FFC100"></path><path d="M127.23,309.88c-2.79,2-.15,7.59,3.24,9.11s13.05.69,13.46-1.52-2.62-5.39-7.18-7S129.16,308.5,127.23,309.88Z" style="fill:#263238"></path><path d="M129.54,310.48c-.69.7.34,2.16,1.37,2.42s3.74-.45,3.74-1.1-1-1.39-2.38-1.64S130,310,129.54,310.48Z" style="fill:#fff;opacity:0.4"></path><path d="M227.3,314.14c1-3.26-4.42-6.17-8-5.37S208.38,316,209.37,318s5.32,2.75,10,1.35S226.58,316.4,227.3,314.14Z" style="fill:#263238"></path><path d="M220.43,311.42c.29-.92-1.26-1.75-2.29-1.52s-3.08,2.06-2.8,2.63,1.51.78,2.83.39S220.22,312.07,220.43,311.42Z" style="fill:#fff;opacity:0.4"></path><path d="M192.67,344.81c-2.82.95-4.42,5.66-3.32,8.69s3.73,5.94,6.22,5.8,8.14-4.55,8.56-6.62S203.3,341.22,192.67,344.81Z" style="fill:#263238"></path><path d="M191.88,346.41a2,2,0,0,0-.89,2.35c.3.82,1,1.6,1.68,1.57a3.93,3.93,0,0,0,2.31-1.8C195.09,348,194.76,345.44,191.88,346.41Z" style="fill:#fff;opacity:0.4"></path><path d="M224.07,359.89c2.28-2,1.94-7.69-.3-10.64s-5.83-5.24-8.12-4.25-5.88,7.73-5.46,10.14S215.47,367.41,224.07,359.89Z" style="fill:#263238"></path><path d="M216.36,352.09a2.33,2.33,0,0,0,.31-2.65c-.45-.81-1.26-1.5-1.86-1.34a3.84,3.84,0,0,0-1.72,2.32C213.11,351,214,353.64,216.36,352.09Z" style="fill:#fff;opacity:0.4"></path><path d="M216.42,328.24c-.14,2.91,7.59,3.86,12.42,3.59s12-2.63,11.46-6.21-9.66-4.56-13.39-3.87S216.55,325.34,216.42,328.24Z" style="fill:#263238"></path><path d="M222,324.79c0,.55,1.44.73,2.36.68s2.27-.49,2.17-1.17-1.83-.87-2.54-.74S222,324.24,222,324.79Z" style="fill:#fff;opacity:0.4"></path><path d="M112.67,338.54c.26-2.9-4.85-4.16-8.1-4.07s-8.18,2.14-8,5.75,6.2,4.93,8.73,4.38S112.4,341.43,112.67,338.54Z" style="fill:#263238"></path><path d="M104.59,336.67c.06-.69-1.17-1-2-1s-2,.52-1.93,1.39,1.49,1.18,2.1,1.05S104.52,337.37,104.59,336.67Z" style="fill:#fff;opacity:0.4"></path><path d="M150.85,342.73c-2.12-2.49-7,.49-9.43,3.09s-4.52,8.06-1.51,10.79,8.67-.93,10.16-3.33S153,345.22,150.85,342.73Z" style="fill:#263238"></path><path d="M147.19,344c-.75-.88-2.49.18-3.34,1.09s-1.61,2.86-.54,3.83,3.07-.33,3.6-1.18S147.94,344.91,147.19,344Z" style="fill:#fff;opacity:0.4"></path><path d="M148.32,288.1c-2,2.56,1.81,6.81,4.81,8.68s8.78,2.92,10.88-.55-2.54-8.34-5.18-9.35S150.37,285.56,148.32,288.1Z" style="fill:#263238"></path><path d="M151.43,287.87c-.52.65.46,1.73,1.22,2.21s2.23.74,2.77-.14-.65-2.12-1.32-2.38S152,287.23,151.43,287.87Z" style="fill:#fff;opacity:0.4"></path><path d="M124.09,293.71c-2.49,2.4,5.6,11,11.26,9.66s5.66-5.52,4.14-7.87S125.66,292.19,124.09,293.71Z" style="fill:#263238"></path><path d="M133.16,294.76c-.66.64,1.49,2.93,3,2.56s1.49-1.46,1.09-2.08S133.58,294.36,133.16,294.76Z" style="fill:#fff;opacity:0.4"></path><path d="M209.66,306.23c1,3.32,12.81,1.6,14.27-3.69s-2.34-7.57-5.22-7.65S209,304.14,209.66,306.23Z" style="fill:#263238"></path><path d="M215.44,299c.28.91,3.5.44,3.9-1a1.52,1.52,0,0,0-1.42-2.09C217.13,295.85,215.27,298.4,215.44,299Z" style="fill:#fff;opacity:0.4"></path><path d="M172.12,323.76c1-3.74-10.15-10.26-15.09-6.62s-3.18,8.25-.71,10.31S171,328.08,172.12,323.76Z" style="fill:#263238"></path><path d="M164,319.72c.31-1.21-3.27-3.31-4.86-2.14a2,2,0,0,0-.23,3.33C159.73,321.57,163.65,321.11,164,319.72Z" style="fill:#fff;opacity:0.4"></path><path d="M169.89,340.49c-1.11-3.28-12.37.38-13.53,6.09s2.6,7.47,5.37,7.09S170.6,342.56,169.89,340.49Z" style="fill:#263238"></path><path d="M164.66,341.39c-.33-1-3.7.11-4,1.82s.78,2.23,1.61,2.12S164.87,342,164.66,341.39Z" style="fill:#fff;opacity:0.4"></path><path d="M123.5,348.26c-7.35,0-15.47,11.18-10.08,15.74s12.3-1.94,12.64-5.94S126.67,348.26,123.5,348.26Z" style="fill:#263238"></path><path d="M119.92,350.33c-2.12,0-4.45,3.21-2.9,4.52s3.54-.55,3.63-1.71S120.83,350.33,119.92,350.33Z" style="fill:#fff;opacity:0.4"></path><path d="M194.8,278.28c-2.86-4.25-15-2.89-16.61,2.7s6.35,6.07,9.71,4.1S196,280.12,194.8,278.28Z" style="fill:#263238"></path><path d="M186.44,278.22c-.85-1.26-4.43-.85-4.89.79s1.86,1.79,2.85,1.21S186.8,278.76,186.44,278.22Z" style="fill:#fff;opacity:0.4"></path><path d="M207.4,287.37c-7.35,0-15.46,10.44-10.08,14.69s12.3-1.8,12.64-5.54S210.58,287.37,207.4,287.37Z" style="fill:#263238"></path><path d="M201.2,291.62c-1.78,0-3.75,2.53-2.44,3.56s3-.43,3.07-1.34S202,291.62,201.2,291.62Z" style="fill:#fff;opacity:0.4"></path><path d="M121.76,321.38c-3.08-6.13-15.2-8.52-16.49-2.24s6.67,9.5,9.93,8.22S123.09,324,121.76,321.38Z" style="fill:#263238"></path><path d="M113.67,317.11c-1.25-1.45-4.69-1.29-4.62.5s2.44,2.13,3.24,1.56S114.21,317.74,113.67,317.11Z" style="fill:#fff;opacity:0.4"></path><g style="opacity:0.7000000000000001"><path d="M129.32,287.92c.67,1.31,1,2.52,2.07,2.9,2.35.25,4.85.12,7,1.5-2.56,1.33-5.62,2.29-8.36,1-1.95-1.15-2-3.91-.75-5.41Z" style="fill:#fff"></path><path d="M146.18,294.37a4.28,4.28,0,0,1,5.32,1,2,2,0,0,1,.43,2.24,4.69,4.69,0,0,0-1.73-.27,4.9,4.9,0,0,1-4-3Z" style="fill:#fff"></path><path d="M153,280.1c2.1-2.09,5.28-3,7.37-4.7.09.15.13-.45,0-1-.16-1.15-.51-2.44-.68-3.87,8.22,6.06.07,10.41-6.72,9.57Z" style="fill:#fff"></path><path d="M135.92,281a5.07,5.07,0,0,1-6.16,2.82,4.21,4.21,0,0,1,6.16-2.82Z" style="fill:#fff"></path><path d="M102.65,305.49a15.35,15.35,0,0,0,2.81-2.66c1.19-1.06,2-2.17,4-2.28,3.15.31,4.28,4.2,5.84,6.24.35.5.52.63.72.71,1.4.29,3-.68,4.57-1.14,2.48-.87,5.41-1.49,8-.65a21.48,21.48,0,0,0-7,2.81c-1.88,1-4,2.49-6.49,1.79-3.21-1.21-3.45-5.56-5.75-7.42-2.21,0-4.29,2.57-6.61,2.6Z" style="fill:#fff"></path><path d="M131.05,341c4.41-10.24,7.35-4.22,15.64-5.33a7.47,7.47,0,0,1-4.14,2.4c-2.24.46-4.09-.16-6.09-.22-1.77.56-3.35,2.52-5.41,3.15Z" style="fill:#fff"></path><path d="M235.46,295.91c-.09,11.15-5.14,6.75-12.35,11a7.37,7.37,0,0,1,2.89-3.81c1.88-1.3,3.83-1.45,5.69-2.17,1.42-1.2,2.11-3.62,3.77-5Z" style="fill:#fff"></path><path d="M124.51,333.58c3.73-6.11,5.87-6.51,11.87-2.76-1.45,1-3.4.55-5,.57-2.4-.3-4.15,2.51-6.85,2.19Z" style="fill:#fff"></path><path d="M118.34,314.44c3.41-.16,7.27,1.44,8.8,4.71a8.69,8.69,0,0,1-.06,5.05c0,.3-.16.57,0,.88-.39,0-.64-.44-.81-.72-.73-1.29-1-2.87-1.74-4.08-1.74-2.12-4.28-3.63-6.19-5.84Z" style="fill:#fff"></path><path d="M102.26,334.31c4.94-5.81,7.43-4.81,12.79-.19a5.5,5.5,0,0,0,.58.42c3.35,1.17,3.57,4.41,1.83,7a8.43,8.43,0,0,1-2.13,2.43c.52-1.68,1.2-4,.89-5.55-.29-1-1.32-1-2.13-1.39-2-1.14-3.48-3-5.4-4.05a2,2,0,0,0-.89-.29c-1.78-.06-3.68,1.32-5.54,1.64Z" style="fill:#fff"></path><path d="M90.69,357.75c2.88-2.15,6.48-3.89,10.16-2.88a13.93,13.93,0,0,1,5.68,2.88,17.51,17.51,0,0,1-4.2.08l-1.93-.15c-3.26-.48-6.33.76-9.71.07Z" style="fill:#fff"></path><path d="M127.09,363.66c1-1.2.72-2.34,1.85-3.5,1.94-1.7,4.83-1.49,7-.26a8.54,8.54,0,0,1-2.32,1.44c-1.47.75-2.25.42-3.61,1.55a3,3,0,0,1-2.9.77Z" style="fill:#fff"></path><path d="M147.75,363.21a5.89,5.89,0,0,1,1.25-3.85c.76-1,1.6-1.42,2.11-2.39,1-1.88,1.55-4.35,2.77-6.37,1.26,3.1,1.22,7.42-1.76,9.59a25.55,25.55,0,0,0-4.37,3Z" style="fill:#fff"></path><path d="M169.11,370.18a5.89,5.89,0,0,1,1.25-3.85c.75-1,1.6-1.42,2.11-2.39,1-1.88,1.55-4.35,2.77-6.37,1.25,3.1,1.22,7.42-1.76,9.59a25.55,25.55,0,0,0-4.37,3Z" style="fill:#fff"></path><path d="M151.28,332.8c5.05-1.19,9.34-5.66,14.68-5.25,3.49.54,6.06,2,9,3.13a47.5,47.5,0,0,0,5.46.8c-2.46.91-5.21,1.54-7.82.79-3.06-.6-5.67-1.94-8.49-1.75-4.12.84-8.57,3.24-12.88,2.28Z" style="fill:#fff"></path><path d="M197.32,320.61c1.65,2.74,4,3.28,7,3.85a15.28,15.28,0,0,1,3.22,1,8.13,8.13,0,0,1-6.89,1.22c-2.36-.75-4.74-3.68-3.32-6.09Z" style="fill:#fff"></path><path d="M98.77,332.08c-1.45,3.21-3,6.31-3,9.75a3.44,3.44,0,0,0,.54,1.53c.66,1.17,1.58,2.38,2.45,3.75-2.4-.59-5.1-2.14-5.79-4.74a9.58,9.58,0,0,1,5.78-10.29Z" style="fill:#fff"></path><path d="M197.78,341c2-.82,4.47.11,6.1,1.39.56.38,1.65,1.39,2,1.53,0,0-.1-.05-.16,0s-.16,0-.21,0,0,0,.12-.14a13.81,13.81,0,0,1,3.46-3.15,16.92,16.92,0,0,1,9.25-1.38c-2.55,1.42-5.4,2.32-7.74,3.79-1.55,1-2.26,2.82-4.1,3.61s-3.23-1.39-4.22-2.51a8.48,8.48,0,0,0-4.52-3.12Z" style="fill:#fff"></path><path d="M162.61,310c4.22-.88,8.68,1.35,12.85,1.07,3.44-.11,6.84-1.24,10.31-1.79a25.35,25.35,0,0,1,6.13.59,10,10,0,0,1,4.4,1.87,2.17,2.17,0,0,1,.77,1.45,1.86,1.86,0,0,1-1.07,1.71,1.52,1.52,0,0,1-1.27.09,4.25,4.25,0,0,0-.88-.44,11.56,11.56,0,0,0-5.84-.35,9.77,9.77,0,0,1-2.92.32c-2,.52-3.58,3.36-5.93,2.69,1.66,0,2.68-1.71,3.71-2.77a3.61,3.61,0,0,1,2.5-1.48c1.84-.39,3.63-1.35,5.63-1.3a9.91,9.91,0,0,1,4.91.92.76.76,0,0,0-.17-.09,1.31,1.31,0,0,0-1.08.07c-.06,0-.12.07-.07,0l.14-.13a1.11,1.11,0,0,0-.4.9c0,.25.19.5.12.44-2.24-1.23-5.23-1.36-7.8-1.6a5,5,0,0,0-1.28.1c-3.26.6-6.54,1.33-10,1.09a24.21,24.21,0,0,1-6.58-1.61c-2.06-.72-4-1.72-6.21-1.79Z" style="fill:#fff"></path><path d="M239.83,345.36c2.27-3.4,6.95-4.37,10.13-6.47,3.34-2,6.24-4.76,9.64-6.94a21.36,21.36,0,0,1-8.09,9.5c-3.68,2.34-7.8,2.33-11.68,3.91Z" style="fill:#fff"></path><path d="M156.15,302.28c3.55-.36,4.53,4.25,2.3,6.39a4.22,4.22,0,0,1-2.3,1.29,24.65,24.65,0,0,1,.51-4.16,6.27,6.27,0,0,0-.51-3.52Z" style="fill:#fff"></path><path d="M104.29,322.22c-3.45-.89-2.76-5.56.08-6.78A4.22,4.22,0,0,1,107,315a25,25,0,0,1-1.93,3.72,6.31,6.31,0,0,0-.75,3.47Z" style="fill:#fff"></path><path d="M194.19,292.43c-2.39,1.14-4.42,3.25-7.28,3.49-2.56.27-5.43-1-7.69-.94a33.3,33.3,0,0,0-4.87.15,12.22,12.22,0,0,0-4.4,2.13l-.06.05a1.23,1.23,0,0,0,.1-.58,1.15,1.15,0,0,0-.41-.74c-.37-.24-.35-.07,0-.1a5.53,5.53,0,0,0,2.06-.6,13,13,0,0,1,5.57-.41,20.6,20.6,0,0,1,5.16,1.13,42.86,42.86,0,0,0-7.62.72c-2.08.28-3,1.55-4.92,1.79-2.14.4-3.49-1.66-1.81-3.27a12.71,12.71,0,0,1,5.88-3.08,25.69,25.69,0,0,1,6.92.16c1,.17,2.85.86,3.8,1.15a7.68,7.68,0,0,0,4.57.25c1.64-.35,3.29-1.22,5-1.3Z" style="fill:#fff"></path><path d="M172.74,281c0,2.11,0,3.74,1.68,4.87,1.45,1,4.27,1.27,5.68,2.74-2.56.61-4.87,1.35-7.42-.3a4.41,4.41,0,0,1,.06-7.31Z" style="fill:#fff"></path><path d="M206.34,285.62a6.75,6.75,0,0,1,8.16,1.78c1.66,2.91-.61,6.05-2.64,8.05-.37-2,.8-5,.11-6.44-1.13-1.42-3.74-2.43-5.63-3.39Z" style="fill:#fff"></path><path d="M225.62,292.8a43.44,43.44,0,0,1,3.46-3.95,11.78,11.78,0,0,1,2.38-2.72,5.29,5.29,0,0,1,.16,4,4.87,4.87,0,0,1-6,2.67Z" style="fill:#fff"></path><path d="M231.1,319.22c3.42-1.72,10.41-.36,12.28,3.17a6,6,0,0,1-1,6,9.94,9.94,0,0,0-.36-2.17c-.26-1-.62-2.47-1.41-2.91a74.1,74.1,0,0,0-9.55-4.08Z" style="fill:#fff"></path><path d="M207.17,361.43c4.94.3,9.64,2.5,14.41.59,1.57-.51,3.18-1.13,4.93-1.66-5.12,7.4-13.14,6.65-19.34,1.07Z" style="fill:#fff"></path></g><path d="M170,334.63c4.27-.39,8.1-1.58,12.36-1.48s8,2.2,12,3.6a8.49,8.49,0,0,1-3.2.32c-3.51-.2-7-1-10.39-.95-3.6,0-7.49.22-10.8-1.49Z" style="opacity:0.1"></path><path d="M110.56,355.3c1.58-3.89,3.49-7.61,7.35-9.88,4-2.14,9.77-.71,11.41,3.7-3.21-1.58-5.79-2.19-9-1.45a6.92,6.92,0,0,0-1.09.35c-3.22,1.55-5.8,4.86-8.62,7.28Z" style="opacity:0.1"></path><path d="M162.61,356.91c2.21-.59,3.08-2.29,4-4.08.92-2,2.26-4.25,4.42-5.29s6.45-3.26,8.52-1a1.86,1.86,0,0,1,.49,1.57c-.12.72-1,1.09-1.52,1.21a18.57,18.57,0,0,1-3.29.39c.88-.66,1.87-1.18,2.71-1.74.15-.11.52-.37.4-.37s-.12.46-.14.48-.21-.15-.26-.17-.11.05-.29.07a19.79,19.79,0,0,0-6.33,2.94c-2.45,2.15-4.59,7.26-8.72,6Z" style="opacity:0.1"></path><path d="M133,321.21c4.26-.62,8.07-1.56,12.25-2a5.3,5.3,0,0,0,5.53-2.64c.67,3-2.65,5.53-5.38,5.48-4,.93-8.66,1.37-12.4-.83Z" style="opacity:0.1"></path><path d="M95.37,323.25a7.28,7.28,0,0,1,2.7-4.69,1.07,1.07,0,0,1,.92-.13,1,1,0,0,1,.62.77,1.12,1.12,0,0,1,0,.41c-.37,1.89.62,3.75.08,5.83-1.13,4.22-6.27,5.29-9.29,7.54-4.07,2.22-4.46,6.82-4.94,11-.91-3.09-1.28-6.31,0-9.46,1.46-3.16,4.54-4.79,7.3-6.37A24.37,24.37,0,0,0,96.29,326a3.94,3.94,0,0,0,1.15-3.11c.06-1-.08-2.52.49-3.57v0a.58.58,0,0,1,0,.1.72.72,0,0,0,.85.56,8.64,8.64,0,0,0-3.42,3.25Z" style="opacity:0.1"></path><path d="M194.34,283.78c1.33-1.2,2.68-2.19,3.72-3.29a15.09,15.09,0,0,1,1.85-1.88c3.86-2.37,9.5-1.23,13.18.86-3.86.75-8,.23-11.6,1.5-.46.22-1.17.9-2,1.37a10.57,10.57,0,0,1-5.16,1.44Z" style="opacity:0.1"></path><path d="M145.18,290.53a6,6,0,0,1,2.48-7.37c3.92-1.91,8.9-.85,12.53,1.18-3.17.51-6.31.5-9.37.91s-4.45,2.43-5.64,5.28Z" style="opacity:0.1"></path><path d="M254.06,306.12c-2.48,3-7,2.6-10.32,3.81a17.42,17.42,0,0,0-4.67,3.28,1.13,1.13,0,0,0-.18-1.21,1.07,1.07,0,0,0-.59-.33l.07,0c2.31-.4,4.59-2.13,7.29-2.09,4.63.29,9.29.92,13.42,3.3,1.93,1.37,2.54,3.94,2.58,6a14.19,14.19,0,0,1-1.06,5.94,17.87,17.87,0,0,1-3.65,4.54,21.2,21.2,0,0,0-2.56,2.72c1.37-3.35,4.63-5.81,4.92-9.56.18-2.46.31-5.73-1.76-7.39-3.49-1.7-8-2.3-11.86-2.64-2.65-.06-5.16,2.2-8.1,1.67a1.54,1.54,0,0,1-1-1.36,1.65,1.65,0,0,1,.27-.9,8,8,0,0,1,2.62-2.1,12,12,0,0,1,5.62-2c3-.31,6.35.2,9-1.65Z" style="opacity:0.1"></path><path d="M195.7,303a10.85,10.85,0,0,0,7,1c1.41-.17,2.37-.85,4.05-.83,1.94.11,2.23,2.07,2.15,3.49a3.09,3.09,0,0,0,.24,1.54,21.28,21.28,0,0,0,2.68,1.68c.17.14.43.3.46.55a.91.91,0,0,0-.61-.12c-3.92.19-5.08-.7-5.63-4.53,0-.14-.1-.19,0,0a1,1,0,0,0,.51.36c-3.66,1.28-9.08,1-10.87-3.1Z" style="opacity:0.1"></path></g></svg>
